HIERARCHY
ROOT hip
{
  OFFSET 0 0 0
  CHANNELS 6 Xposition Yposition Zposition Zrotation Yrotation Xrotation
  JOINT abdomen
  {
    OFFSET 0 20.6881 -0.73152
    CHANNELS 3 Zrotation Xrotation Yrotation
    JOINT chest
    {
      OFFSET 0 11.7043 -0.48768
      CHANNELS 3 Zrotation Xrotation Yrotation
      JOINT neck
      {
        OFFSET 0 22.1894 -2.19456
        CHANNELS 3 Zrotation Xrotation Yrotation
        JOINT head
        {
          OFFSET -0.24384 7.07133 1.2192
          CHANNELS 3 Zrotation Xrotation Yrotation
          JOINT leftEye
          {
            OFFSET 4.14528 8.04674 8.04672
            CHANNELS 3 Zrotation Xrotation Yrotation
            End Site
            {
              OFFSET 1 0 0
            }
          }
          JOINT rightEye
          {
            OFFSET -3.6576 8.04674 8.04672
            CHANNELS 3 Zrotation Xrotation Yrotation
            End Site
            {
              OFFSET 1 0 0
            }
          }
        }
      }
      JOINT rCollar
      {
        OFFSET -2.68224 19.2634 -4.8768
        CHANNELS 3 Zrotation Xrotation Yrotation
        JOINT rShldr
        {
          OFFSET -8.77824 -1.95073 1.46304
          CHANNELS 3 Zrotation Xrotation Yrotation
          JOINT rForeArm
          {
            OFFSET -28.1742 -1.7115 0.48768
            CHANNELS 3 Zrotation Xrotation Yrotation
            JOINT rHand
            {
              OFFSET -22.5879 0.773209 7.07136
              CHANNELS 3 Zrotation Xrotation Yrotation
              JOINT rThumb1
              {
                OFFSET -1.2192 -0.487915 3.41376
                CHANNELS 3 Zrotation Xrotation Yrotation
                JOINT rThumb2
                {
                  OFFSET -3.37035 -0.52449 3.41376
                  CHANNELS 3 Zrotation Xrotation Yrotation
                  End Site
                  {
                    OFFSET -1.78271 -1.18214 1.43049
                  }
                }
              }
              JOINT rIndex1
              {
                OFFSET -7.75947 0.938293 5.60832
                CHANNELS 3 Zrotation Xrotation Yrotation
                JOINT rIndex2
                {
                  OFFSET -2.54057 -0.884171 1.56538
                  CHANNELS 3 Zrotation Xrotation Yrotation
                  End Site
                  {
                    OFFSET -1.62519 -0.234802 1.16502
                  }
                }
              }
              JOINT rMid1
              {
                OFFSET -8.24714 1.18213 3.41376
                CHANNELS 3 Zrotation Xrotation Yrotation
                JOINT rMid2
                {
                  OFFSET -3.10165 -0.590103 1.0647
                  CHANNELS 3 Zrotation Xrotation Yrotation
                  End Site
                  {
                    OFFSET -2.48547 -0.328903 0.83742
                  }
                }
              }
              JOINT rRing1
              {
                OFFSET -8.82822 0.546677 1.51678
                CHANNELS 3 Zrotation Xrotation Yrotation
                JOINT rRing2
                {
                  OFFSET -2.60934 -0.819778 -0.0198488
                  CHANNELS 3 Zrotation Xrotation Yrotation
                  End Site
                  {
                    OFFSET -2.33842 -0.294052 0.168128
                  }
                }
              }
              JOINT rPinky1
              {
                OFFSET -8.27202 -0.0477905 -0.4584
                CHANNELS 3 Zrotation Xrotation Yrotation
                JOINT rPinky2
                {
                  OFFSET -1.82734 -0.647385 -0.700984
                  CHANNELS 3 Zrotation Xrotation Yrotation
                  End Site
                  {
                    OFFSET -1.69225 -0.51767 -0.607171
                  }
                }
              }
            }
          }
        }
      }
      JOINT lCollar
      {
        OFFSET 2.68224 19.2634 -4.8768
        CHANNELS 3 Zrotation Xrotation Yrotation
        JOINT lShldr
        {
          OFFSET 8.77824 -1.95073 1.46304
          CHANNELS 3 Zrotation Xrotation Yrotation
          JOINT lForeArm
          {
            OFFSET 28.1742 -1.7115 0.48768
            CHANNELS 3 Zrotation Xrotation Yrotation
            JOINT lHand
            {
              OFFSET 22.5879 0.773209 7.07136
              CHANNELS 3 Zrotation Xrotation Yrotation
              JOINT lThumb1
              {
                OFFSET 1.2192 -0.487915 3.41376
                CHANNELS 3 Zrotation Xrotation Yrotation
                JOINT lThumb2
                {
                  OFFSET 3.37035 -0.52449 3.41376
                  CHANNELS 3 Zrotation Xrotation Yrotation
                  End Site
                  {
                    OFFSET 1.78271 -1.18214 1.43049
                  }
                }
              }
              JOINT lIndex1
              {
                OFFSET 7.75947 0.938293 5.60832
                CHANNELS 3 Zrotation Xrotation Yrotation
                JOINT lIndex2
                {
                  OFFSET 2.54057 -0.884171 1.56538
                  CHANNELS 3 Zrotation Xrotation Yrotation
                  End Site
                  {
                    OFFSET 1.62519 -0.234802 1.16502
                  }
                }
              }
              JOINT lMid1
              {
                OFFSET 8.24714 1.18213 3.41376
                CHANNELS 3 Zrotation Xrotation Yrotation
                JOINT lMid2
                {
                  OFFSET 3.10165 -0.590103 1.0647
                  CHANNELS 3 Zrotation Xrotation Yrotation
                  End Site
                  {
                    OFFSET 2.48547 -0.328903 0.83742
                  }
                }
              }
              JOINT lRing1
              {
                OFFSET 8.82822 0.546677 1.51678
                CHANNELS 3 Zrotation Xrotation Yrotation
                JOINT lRing2
                {
                  OFFSET 2.60934 -0.819778 -0.0198488
                  CHANNELS 3 Zrotation Xrotation Yrotation
                  End Site
                  {
                    OFFSET 2.33842 -0.294052 0.168128
                  }
                }
              }
              JOINT lPinky1
              {
                OFFSET 8.27202 -0.0477905 -0.4584
                CHANNELS 3 Zrotation Xrotation Yrotation
                JOINT lPinky2
                {
                  OFFSET 1.82734 -0.647385 -0.700984
                  CHANNELS 3 Zrotation Xrotation Yrotation
                  End Site
                  {
                    OFFSET 1.69225 -0.51767 -0.607171
                  }
                }
              }
            }
          }
        }
      }
    }
  }
  JOINT rButtock
  {
    OFFSET -8.77824 4.35084 1.2192
    CHANNELS 3 Zrotation Xrotation Yrotation
    JOINT rThigh
    {
      OFFSET 0 -1.70687 -2.19456
      CHANNELS 3 Zrotation Xrotation Yrotation
      JOINT rShin
      {
        OFFSET 0 -36.8199 0.73152
        CHANNELS 3 Zrotation Xrotation Yrotation
        JOINT rFoot
        {
          OFFSET 0.73152 -45.1104 -5.12064
          CHANNELS 3 Zrotation Xrotation Yrotation
          End Site
          {
            OFFSET -1.1221 -3.69964 12.103
          }
        }
      }
    }
  }
  JOINT lButtock
  {
    OFFSET 8.77824 4.35084 1.2192
    CHANNELS 3 Zrotation Xrotation Yrotation
    JOINT lThigh
    {
      OFFSET 0 -1.70687 -2.19456
      CHANNELS 3 Zrotation Xrotation Yrotation
      JOINT lShin
      {
        OFFSET 0 -36.8199 0.73152
        CHANNELS 3 Zrotation Xrotation Yrotation
        JOINT lFoot
        {
          OFFSET -0.73152 -45.1104 -5.12064
          CHANNELS 3 Zrotation Xrotation Yrotation
          End Site
          {
            OFFSET 1.1221 -3.69964 12.103
          }
        }
      }
    }
  }
}
MOTION
Frames:	5
Frame Time:	0.03333
0.0 0.0 0.0 0.0 0.0 0.0 0.0 0.0 0.0 0.0 0.0 0.0 0.0 0.0 0.0 0.0 0.0 0.0 0.0 0.0 0.0 0.0 0.0 0.0 0.0 0.0 0.0 0.0 0.0 0.0 0.0 0.0 0.0 0.0 0.0 0.0 0.0 0.0 0.0 0.0 0.0 0.0 0.0 0.0 0.0 0.0 0.0 0.0 0.0 0.0 0.0 0.0 0.0 0.0 0.0 0.0 0.0 0.0 0.0 0.0 0.0 0.0 0.0 0.0 0.0 0.0 0.0 0.0 0.0 0.0 0.0 0.0 0.0 0.0 0.0 0.0 0.0 0.0 0.0 0.0 0.0 0.0 0.0 0.0 0.0 0.0 0.0 0.0 0.0 0.0 0.0 0.0 0.0 0.0 0.0 0.0 0.0 0.0 0.0 0.0 0.0 0.0 0.0 0.0 0.0 0.0 0.0 0.0 0.0 0.0 0.0 0.0 0.0 0.0 0.0 0.0 0.0 0.0 0.0 0.0 0.0 0.0 0.0 0.0 0.0 0.0 0.0 0.0 0.0 0.0 0.0 0.0
0.6401 63.976 6.3149999999999995 -100.029828 74.044817 -96.105143 -0.682651 32.565285 -174.177286 -10.441253 10.342539 166.817685 7.852814 29.409064 99.591953 -45.186607 6.65718 -145.670786 0.004832 -0.0 -5.7e-05 -0.000824 0.0 -0.000393 -153.592961 -75.693611 -178.262886 130.013666 47.836982 -137.78792 -179.07431 51.701345 45.257956 -173.799223 1.41422 142.158449 51.059856 -41.204223 12.855975 -38.533765 25.938865 9.187856 -19.170933 24.114229 13.381451 -100.862038 45.088078 77.049476 -36.035454 51.72353 29.831563 -163.096296 -4.756989 143.251543 -145.119638 0.267521 -179.212926 -7.193727 -61.372252 -28.154187 -86.002126 -50.49766 -84.370457 -151.862648 29.633055 -146.130881 -2.52991 -18.881199 3.794183 -66.289405 22.32098 -16.436551 -79.657355 50.644283 -59.621377 37.48417 50.230968 -18.360281 -4.654691 -4.638335 0.529342 158.579932 -72.652719 -121.43345 100.825306 37.73473 -85.162001 -3.714419 4.339849 5.28777 151.477573 17.841471 -137.537618 13.455197 36.171977 -10.996288 75.673397 -72.115912 92.829004 149.659539 -28.847771 179.527825 144.85889 11.078589 141.545318 -1.833207 -1.226376 2.370985 0.000555 0.000514 0.000833 -67.232903 -62.429186 -65.20194 -140.300192 81.266535 -120.35717 -142.342772 3.125833 101.350749 -0.0 0.000514 0.000401 64.818083 -41.899503 -107.432169 -60.296635 -76.733107 37.82197 91.067726 -58.780175 174.377511
1.4083999999999999 62.68129999999999 9.9879 -107.397056 75.030509 -103.79998 -0.482344 35.856651 0.0 12.085138 -13.254607 -5.594032 -14.075978 34.167163 -102.370395 46.688041 29.675074 41.77323 0.001988 -0.0 -0.003263 -0.004598 0.0 -0.001152 -153.050002 10.023385 158.667929 111.303459 -46.919406 135.003313 -90.944552 78.836158 -44.714915 -178.961304 -13.535459 143.621075 -94.519071 37.864328 54.092107 -52.988839 -3.209092 45.518203 -162.637176 -37.465183 122.649951 -166.088955 -28.978183 118.551131 -0.337527 0.982233 0.189929 -174.538035 -37.77895 143.550436 5.2e-05 0.063691 0.020161 -148.214609 -76.78006 -171.08228 -8.191037 -17.575907 -7.729367 -4.088395 -16.342029 -6.178104 155.417054 -2.951439 -161.718583 -165.178588 -46.755616 147.438353 -168.972202 35.730508 -39.262333 171.141689 12.563505 -140.546641 171.705891 -9.388492 -89.948928 -14.14932 -60.6006 -15.111682 140.682886 1.504911 -116.182463 165.496026 -19.940612 -119.001911 160.098216 -4.90097 -142.969564 -9.984458 -20.330942 1.141804 72.349949 72.974654 -90.218157 3.232338 -62.282093 18.738929 26.565365 -38.861075 25.604868 16.800293 -35.044905 18.627167 0.0 -0.001339 0.000577 -52.619852 -55.686982 122.253916 64.010324 -64.079052 -102.565871 48.23351 4.942149 -20.216809 -179.991659 75.749807 -0.006863 -135.320782 8.384583 -0.0 69.509183 74.46599 21.793545 -117.034986 48.406986 23.599238
2.1457 61.3186 13.9556 -117.71911 76.150108 -114.826619 -0.731089 29.759884 -178.527363 -12.060656 8.568392 172.049573 -8.557649 21.086356 -14.763807 25.925152 -28.70849 -30.837351 0.001848 0.0 8.8e-05 0.001848 0.0 8.8e-05 -143.26104 38.907529 147.697131 88.901853 -39.953694 100.305733 -1.31459 -81.038657 101.858949 -8.567763 -1.308633 -2.733749 -68.482615 37.954038 35.659332 -118.882774 -17.373095 82.306465 -153.452647 -21.067692 121.745054 -78.99651 57.463347 61.705644 173.12248 -66.297687 137.613204 -161.40956 1.304798 142.325167 -13.61763 -53.680492 -25.679557 12.895762 20.128614 0.564037 -25.538652 -38.087575 -24.597808 -16.80368 -35.049827 -18.608592 0.625353 3.591207 -0.81943 122.255376 -32.511196 -144.619218 176.118854 -9.946253 69.335872 8.939552 0.812512 2.463316 -178.338147 -19.018192 -88.987873 127.764699 17.269937 -63.944398 26.600429 30.072683 -19.414954 -95.433302 -62.35415 -45.552283 36.035221 51.723206 -29.832573 42.042808 58.505184 -36.267468 0.022879 -1.806792 0.566335 156.281805 -22.944351 -174.545168 -54.182344 87.260516 14.46122 162.036982 55.563036 148.230592 179.956008 75.74834 0.033906 149.829192 20.391435 10.842662 -32.195881 74.605261 173.33965 -104.963721 -18.506281 147.577328 0.000314 -0.000365 -0.0 67.542711 -39.428128 58.103638 -35.716702 83.303798 -76.791774 90.589661 -33.17158 174.367854
2.6738 60.022299999999994 18.6357 -128.187046 77.410976 -125.497557 -0.504213 27.983174 -162.346315 -8.618708 11.509159 154.549022 4.49787 23.406357 57.910067 -31.368662 -19.265827 -117.012993 0.003757 -0.0 -0.001854 -0.001894 0.0 -0.00255 -143.334331 38.771246 147.775005 -97.93781 34.229784 81.976662 -156.631406 83.336985 -91.764229 -8.684016 -0.009415 -2.561775 6.563901 -6.553558 -0.639239 29.659654 -60.651053 -23.152324 -150.886434 -16.291965 120.976884 -79.286113 57.443899 61.51369 -57.868432 59.21819 50.525046 -17.906335 42.260852 14.605072 -145.122254 1.121977 -179.479367 11.513784 58.799143 -1.663657 -80.939539 -51.227855 -79.359607 -158.846391 52.755675 -148.401711 6.043208 25.599085 -7.234366 -70.18966 -5.69289 -44.230021 -112.496215 39.217097 -35.849909 80.815344 65.780895 -59.254213 173.770763 -11.439895 -89.891491 -56.771667 -69.402436 -43.578253 46.206802 39.653993 -36.317938 164.372125 -11.003418 -112.140382 160.67286 -6.667511 -143.246624 7.496345 26.111946 -6.445776 145.119792 0.268401 179.211133 148.138483 -43.031391 170.602999 -12.253094 41.425036 -10.277618 157.013389 43.459891 148.790293 0.000225 0.002001 -0.00029 -39.502018 -36.65631 61.765214 59.748486 18.048969 -125.92969 -40.128639 -38.134275 73.675504 0.020168 -0.000866 0.015126 67.637397 -39.739721 75.26421 77.850018 73.052379 135.335993 -21.741352 25.442533 157.573772
